<mxfile host="app.diagrams.net" modified="2023-12-24T11:33:43.260Z" agent="Mozilla/5.0 (Windows NT 10.0; Win64; x64) AppleWebKit/537.36 (KHTML, like Gecko) Chrome/120.0.0.0 Safari/537.36" etag="w11s_g_Xq8rmdSSbiC5v" version="22.1.11" type="github" pages="2">
  <diagram name="DFD" id="n0FZbdHuvzvqF5hNi4Mt">
    <mxGraphModel dx="1100" dy="575" grid="1" gridSize="10" guides="1" tooltips="1" connect="1" arrows="1" fold="1" page="1" pageScale="1" pageWidth="827" pageHeight="1169" math="0" shadow="0">
      <root>
        <mxCell id="0" />
        <mxCell id="1" parent="0" />
        <mxCell id="ZXx62WjoBj0hGwNEn4ZQ-1" value="&lt;h1&gt;&lt;font style=&quot;font-size: 27px;&quot;&gt;Job Application System&lt;/font&gt;&lt;/h1&gt;" style="text;html=1;strokeColor=none;fillColor=none;spacing=5;spacingTop=-20;whiteSpace=wrap;overflow=hidden;rounded=0;align=center;fontStyle=4" parent="1" vertex="1">
          <mxGeometry x="289" y="40" width="330" height="40" as="geometry" />
        </mxCell>
        <mxCell id="ZXx62WjoBj0hGwNEn4ZQ-2" value="&lt;h1&gt;Data Flow Diagram&lt;/h1&gt;" style="text;html=1;strokeColor=none;fillColor=none;spacing=5;spacingTop=-20;whiteSpace=wrap;overflow=hidden;rounded=0;align=center;fontStyle=4" parent="1" vertex="1">
          <mxGeometry x="328" y="99" width="250" height="40" as="geometry" />
        </mxCell>
        <mxCell id="ZXx62WjoBj0hGwNEn4ZQ-3" value="&lt;h1&gt;Level - 0&lt;/h1&gt;" style="text;html=1;strokeColor=none;fillColor=none;spacing=5;spacingTop=-20;whiteSpace=wrap;overflow=hidden;rounded=0;align=center;" parent="1" vertex="1">
          <mxGeometry x="115" y="160" width="120" height="40" as="geometry" />
        </mxCell>
        <mxCell id="ZXx62WjoBj0hGwNEn4ZQ-5" value="&lt;font style=&quot;font-size: 14px;&quot;&gt;Job Seeker&lt;/font&gt;" style="rounded=0;whiteSpace=wrap;html=1;fillColor=#dae8fc;strokeColor=#6c8ebf;" parent="1" vertex="1">
          <mxGeometry x="150" y="439" width="120" height="60" as="geometry" />
        </mxCell>
        <mxCell id="ZXx62WjoBj0hGwNEn4ZQ-6" value="&lt;font style=&quot;font-size: 14px;&quot;&gt;Job Application System&lt;/font&gt;" style="ellipse;whiteSpace=wrap;html=1;aspect=fixed;fillColor=#ffe6cc;strokeColor=#d79b00;" parent="1" vertex="1">
          <mxGeometry x="393" y="408" width="120" height="120" as="geometry" />
        </mxCell>
        <mxCell id="ZXx62WjoBj0hGwNEn4ZQ-7" value="&lt;font style=&quot;font-size: 14px;&quot;&gt;Employer&lt;/font&gt;" style="rounded=0;whiteSpace=wrap;html=1;fillColor=#dae8fc;strokeColor=#6c8ebf;" parent="1" vertex="1">
          <mxGeometry x="640" y="439" width="120" height="60" as="geometry" />
        </mxCell>
        <mxCell id="ZXx62WjoBj0hGwNEn4ZQ-13" value="" style="endArrow=classic;html=1;rounded=0;edgeStyle=orthogonalEdgeStyle;exitX=1;exitY=0.25;exitDx=0;exitDy=0;" parent="1" source="ZXx62WjoBj0hGwNEn4ZQ-5" edge="1">
          <mxGeometry width="50" height="50" relative="1" as="geometry">
            <mxPoint x="300" y="489" as="sourcePoint" />
            <mxPoint x="390" y="454" as="targetPoint" />
          </mxGeometry>
        </mxCell>
        <mxCell id="ZXx62WjoBj0hGwNEn4ZQ-14" value="" style="endArrow=classic;html=1;rounded=0;edgeStyle=orthogonalEdgeStyle;exitX=0.975;exitY=0.333;exitDx=0;exitDy=0;exitPerimeter=0;" parent="1" edge="1">
          <mxGeometry width="50" height="50" relative="1" as="geometry">
            <mxPoint x="510" y="448.96000000000004" as="sourcePoint" />
            <mxPoint x="630" y="449" as="targetPoint" />
          </mxGeometry>
        </mxCell>
        <mxCell id="ZXx62WjoBj0hGwNEn4ZQ-15" value="" style="endArrow=classic;html=1;rounded=0;edgeStyle=orthogonalEdgeStyle;exitX=0;exitY=0.75;exitDx=0;exitDy=0;" parent="1" source="ZXx62WjoBj0hGwNEn4ZQ-7" edge="1">
          <mxGeometry width="50" height="50" relative="1" as="geometry">
            <mxPoint x="550" y="519" as="sourcePoint" />
            <mxPoint x="520" y="484" as="targetPoint" />
          </mxGeometry>
        </mxCell>
        <mxCell id="ZXx62WjoBj0hGwNEn4ZQ-16" value="" style="endArrow=classic;html=1;rounded=0;edgeStyle=orthogonalEdgeStyle;exitX=0.025;exitY=0.675;exitDx=0;exitDy=0;exitPerimeter=0;" parent="1" edge="1">
          <mxGeometry width="50" height="50" relative="1" as="geometry">
            <mxPoint x="396" y="490" as="sourcePoint" />
            <mxPoint x="280" y="489" as="targetPoint" />
          </mxGeometry>
        </mxCell>
        <mxCell id="ZXx62WjoBj0hGwNEn4ZQ-17" value="Request" style="text;html=1;strokeColor=none;fillColor=none;align=center;verticalAlign=middle;whiteSpace=wrap;rounded=0;" parent="1" vertex="1">
          <mxGeometry x="300" y="429" width="60" height="30" as="geometry" />
        </mxCell>
        <mxCell id="ZXx62WjoBj0hGwNEn4ZQ-18" value="Request Info" style="text;html=1;strokeColor=none;fillColor=none;align=center;verticalAlign=middle;whiteSpace=wrap;rounded=0;" parent="1" vertex="1">
          <mxGeometry x="528" y="424" width="80" height="30" as="geometry" />
        </mxCell>
        <mxCell id="ZXx62WjoBj0hGwNEn4ZQ-19" value="Response" style="text;html=1;strokeColor=none;fillColor=none;align=center;verticalAlign=middle;whiteSpace=wrap;rounded=0;" parent="1" vertex="1">
          <mxGeometry x="300" y="489" width="60" height="30" as="geometry" />
        </mxCell>
        <mxCell id="ZXx62WjoBj0hGwNEn4ZQ-20" value="Status" style="text;html=1;strokeColor=none;fillColor=none;align=center;verticalAlign=middle;whiteSpace=wrap;rounded=0;" parent="1" vertex="1">
          <mxGeometry x="542" y="485" width="60" height="30" as="geometry" />
        </mxCell>
        <mxCell id="ZXx62WjoBj0hGwNEn4ZQ-21" value="&lt;h1&gt;Level - 1&lt;/h1&gt;" style="text;html=1;strokeColor=none;fillColor=none;spacing=5;spacingTop=-20;whiteSpace=wrap;overflow=hidden;rounded=0;" parent="1" vertex="1">
          <mxGeometry x="689" y="550" width="110" height="40" as="geometry" />
        </mxCell>
        <mxCell id="LY_n04c2pggJdk4liKM1-2" style="edgeStyle=orthogonalEdgeStyle;rounded=0;orthogonalLoop=1;jettySize=auto;html=1;" edge="1" parent="1" source="ZXx62WjoBj0hGwNEn4ZQ-22">
          <mxGeometry relative="1" as="geometry">
            <mxPoint x="210" y="1461" as="targetPoint" />
          </mxGeometry>
        </mxCell>
        <mxCell id="LY_n04c2pggJdk4liKM1-3" style="edgeStyle=orthogonalEdgeStyle;rounded=0;orthogonalLoop=1;jettySize=auto;html=1;exitX=0;exitY=0.5;exitDx=0;exitDy=0;entryX=0;entryY=0.5;entryDx=0;entryDy=0;" edge="1" parent="1" source="ZXx62WjoBj0hGwNEn4ZQ-22" target="rvOceuUh3xd4G9wwaCa7-1">
          <mxGeometry relative="1" as="geometry" />
        </mxCell>
        <mxCell id="ZXx62WjoBj0hGwNEn4ZQ-22" value="&lt;span style=&quot;font-size: 14px;&quot;&gt;User / Employer&lt;/span&gt;" style="rounded=0;whiteSpace=wrap;html=1;fillColor=#dae8fc;strokeColor=#6c8ebf;" parent="1" vertex="1">
          <mxGeometry x="150" y="1271" width="120" height="60" as="geometry" />
        </mxCell>
        <mxCell id="ZXx62WjoBj0hGwNEn4ZQ-23" value="&lt;font style=&quot;font-size: 14px;&quot;&gt;Login&lt;/font&gt;" style="ellipse;whiteSpace=wrap;html=1;aspect=fixed;fillColor=#ffe6cc;strokeColor=#d79b00;" parent="1" vertex="1">
          <mxGeometry x="393" y="1241" width="120" height="120" as="geometry" />
        </mxCell>
        <mxCell id="ZXx62WjoBj0hGwNEn4ZQ-25" value="" style="endArrow=classic;html=1;rounded=0;edgeStyle=orthogonalEdgeStyle;exitX=1;exitY=0.25;exitDx=0;exitDy=0;" parent="1" source="ZXx62WjoBj0hGwNEn4ZQ-22" edge="1">
          <mxGeometry width="50" height="50" relative="1" as="geometry">
            <mxPoint x="300" y="1321" as="sourcePoint" />
            <mxPoint x="390" y="1286" as="targetPoint" />
          </mxGeometry>
        </mxCell>
        <mxCell id="ZXx62WjoBj0hGwNEn4ZQ-28" value="" style="endArrow=classic;html=1;rounded=0;edgeStyle=orthogonalEdgeStyle;exitX=0.025;exitY=0.675;exitDx=0;exitDy=0;exitPerimeter=0;" parent="1" source="ZXx62WjoBj0hGwNEn4ZQ-23" edge="1">
          <mxGeometry width="50" height="50" relative="1" as="geometry">
            <mxPoint x="280" y="1371" as="sourcePoint" />
            <mxPoint x="280" y="1321" as="targetPoint" />
          </mxGeometry>
        </mxCell>
        <mxCell id="ZXx62WjoBj0hGwNEn4ZQ-29" value="Request" style="text;html=1;strokeColor=none;fillColor=none;align=center;verticalAlign=middle;whiteSpace=wrap;rounded=0;" parent="1" vertex="1">
          <mxGeometry x="300" y="1261" width="60" height="30" as="geometry" />
        </mxCell>
        <mxCell id="ZXx62WjoBj0hGwNEn4ZQ-30" value="Authorization" style="text;html=1;strokeColor=none;fillColor=none;align=center;verticalAlign=middle;whiteSpace=wrap;rounded=0;" parent="1" vertex="1">
          <mxGeometry x="539" y="1271" width="80" height="30" as="geometry" />
        </mxCell>
        <mxCell id="ZXx62WjoBj0hGwNEn4ZQ-31" value="Response" style="text;html=1;strokeColor=none;fillColor=none;align=center;verticalAlign=middle;whiteSpace=wrap;rounded=0;" parent="1" vertex="1">
          <mxGeometry x="300" y="1321" width="60" height="30" as="geometry" />
        </mxCell>
        <mxCell id="ZXx62WjoBj0hGwNEn4ZQ-33" value="" style="endArrow=classic;startArrow=classic;html=1;rounded=0;edgeStyle=orthogonalEdgeStyle;entryX=0;entryY=0.5;entryDx=0;entryDy=0;exitX=1;exitY=0.5;exitDx=0;exitDy=0;" parent="1" source="ZXx62WjoBj0hGwNEn4ZQ-23" edge="1">
          <mxGeometry width="50" height="50" relative="1" as="geometry">
            <mxPoint x="550" y="1351" as="sourcePoint" />
            <mxPoint x="640" y="1301" as="targetPoint" />
          </mxGeometry>
        </mxCell>
        <mxCell id="LY_n04c2pggJdk4liKM1-1" style="edgeStyle=orthogonalEdgeStyle;rounded=0;orthogonalLoop=1;jettySize=auto;html=1;entryX=0.5;entryY=0;entryDx=0;entryDy=0;" edge="1" parent="1" source="ZXx62WjoBj0hGwNEn4ZQ-34" target="ZXx62WjoBj0hGwNEn4ZQ-22">
          <mxGeometry relative="1" as="geometry" />
        </mxCell>
        <mxCell id="ZXx62WjoBj0hGwNEn4ZQ-34" value="&lt;span style=&quot;font-size: 14px;&quot;&gt;User / Employer&lt;/span&gt;" style="rounded=0;whiteSpace=wrap;html=1;fillColor=#dae8fc;strokeColor=#6c8ebf;" parent="1" vertex="1">
          <mxGeometry x="150" y="1078" width="120" height="60" as="geometry" />
        </mxCell>
        <mxCell id="ZXx62WjoBj0hGwNEn4ZQ-35" value="&lt;span style=&quot;font-size: 14px;&quot;&gt;User Registration&lt;/span&gt;" style="ellipse;whiteSpace=wrap;html=1;aspect=fixed;fillColor=#ffe6cc;strokeColor=#d79b00;" parent="1" vertex="1">
          <mxGeometry x="393" y="1048" width="120" height="120" as="geometry" />
        </mxCell>
        <mxCell id="ZXx62WjoBj0hGwNEn4ZQ-37" value="" style="endArrow=classic;html=1;rounded=0;edgeStyle=orthogonalEdgeStyle;exitX=1;exitY=0.25;exitDx=0;exitDy=0;" parent="1" source="ZXx62WjoBj0hGwNEn4ZQ-34" edge="1">
          <mxGeometry width="50" height="50" relative="1" as="geometry">
            <mxPoint x="300" y="1128" as="sourcePoint" />
            <mxPoint x="390" y="1093" as="targetPoint" />
          </mxGeometry>
        </mxCell>
        <mxCell id="ZXx62WjoBj0hGwNEn4ZQ-38" value="" style="endArrow=classic;html=1;rounded=0;edgeStyle=orthogonalEdgeStyle;exitX=0.025;exitY=0.675;exitDx=0;exitDy=0;exitPerimeter=0;" parent="1" source="ZXx62WjoBj0hGwNEn4ZQ-35" edge="1">
          <mxGeometry width="50" height="50" relative="1" as="geometry">
            <mxPoint x="280" y="1178" as="sourcePoint" />
            <mxPoint x="280" y="1128" as="targetPoint" />
          </mxGeometry>
        </mxCell>
        <mxCell id="ZXx62WjoBj0hGwNEn4ZQ-39" value="Registration Request" style="text;html=1;strokeColor=none;fillColor=none;align=center;verticalAlign=middle;whiteSpace=wrap;rounded=0;" parent="1" vertex="1">
          <mxGeometry x="300" y="1062" width="60" height="30" as="geometry" />
        </mxCell>
        <mxCell id="ZXx62WjoBj0hGwNEn4ZQ-41" value="Response" style="text;html=1;strokeColor=none;fillColor=none;align=center;verticalAlign=middle;whiteSpace=wrap;rounded=0;" parent="1" vertex="1">
          <mxGeometry x="300" y="1128" width="60" height="30" as="geometry" />
        </mxCell>
        <mxCell id="ZXx62WjoBj0hGwNEn4ZQ-48" value="Job Seeker Info" style="text;html=1;strokeColor=none;fillColor=none;align=center;verticalAlign=middle;whiteSpace=wrap;rounded=0;" parent="1" vertex="1">
          <mxGeometry x="523" y="1045" width="72" height="30" as="geometry" />
        </mxCell>
        <mxCell id="ZXx62WjoBj0hGwNEn4ZQ-49" value="Employer Info" style="text;html=1;strokeColor=none;fillColor=none;align=center;verticalAlign=middle;whiteSpace=wrap;rounded=0;" parent="1" vertex="1">
          <mxGeometry x="527" y="1138" width="60" height="30" as="geometry" />
        </mxCell>
        <mxCell id="LY_n04c2pggJdk4liKM1-4" style="edgeStyle=orthogonalEdgeStyle;rounded=0;orthogonalLoop=1;jettySize=auto;html=1;entryX=0.5;entryY=0;entryDx=0;entryDy=0;" edge="1" parent="1" source="rvOceuUh3xd4G9wwaCa7-1" target="rvOceuUh3xd4G9wwaCa7-16">
          <mxGeometry relative="1" as="geometry" />
        </mxCell>
        <mxCell id="rvOceuUh3xd4G9wwaCa7-1" value="&lt;span style=&quot;font-size: 14px;&quot;&gt;User&lt;/span&gt;" style="rounded=0;whiteSpace=wrap;html=1;fillColor=#dae8fc;strokeColor=#6c8ebf;" parent="1" vertex="1">
          <mxGeometry x="149" y="1668" width="120" height="60" as="geometry" />
        </mxCell>
        <mxCell id="rvOceuUh3xd4G9wwaCa7-2" value="&lt;span style=&quot;font-size: 14px;&quot;&gt;Search&lt;/span&gt;" style="ellipse;whiteSpace=wrap;html=1;aspect=fixed;fillColor=#ffe6cc;strokeColor=#d79b00;" parent="1" vertex="1">
          <mxGeometry x="392" y="1638" width="120" height="120" as="geometry" />
        </mxCell>
        <mxCell id="rvOceuUh3xd4G9wwaCa7-4" value="" style="endArrow=classic;html=1;rounded=0;edgeStyle=orthogonalEdgeStyle;exitX=1;exitY=0.25;exitDx=0;exitDy=0;" parent="1" source="rvOceuUh3xd4G9wwaCa7-1" edge="1">
          <mxGeometry width="50" height="50" relative="1" as="geometry">
            <mxPoint x="299" y="1718" as="sourcePoint" />
            <mxPoint x="389" y="1683" as="targetPoint" />
          </mxGeometry>
        </mxCell>
        <mxCell id="rvOceuUh3xd4G9wwaCa7-5" value="" style="endArrow=classic;html=1;rounded=0;edgeStyle=orthogonalEdgeStyle;exitX=0.025;exitY=0.675;exitDx=0;exitDy=0;exitPerimeter=0;" parent="1" source="rvOceuUh3xd4G9wwaCa7-2" edge="1">
          <mxGeometry width="50" height="50" relative="1" as="geometry">
            <mxPoint x="279" y="1768" as="sourcePoint" />
            <mxPoint x="279" y="1718" as="targetPoint" />
          </mxGeometry>
        </mxCell>
        <mxCell id="rvOceuUh3xd4G9wwaCa7-6" value="Search&lt;br&gt;Request" style="text;html=1;strokeColor=none;fillColor=none;align=center;verticalAlign=middle;whiteSpace=wrap;rounded=0;" parent="1" vertex="1">
          <mxGeometry x="299" y="1652" width="60" height="30" as="geometry" />
        </mxCell>
        <mxCell id="rvOceuUh3xd4G9wwaCa7-7" value="Search Result" style="text;html=1;strokeColor=none;fillColor=none;align=center;verticalAlign=middle;whiteSpace=wrap;rounded=0;" parent="1" vertex="1">
          <mxGeometry x="299" y="1719" width="60" height="30" as="geometry" />
        </mxCell>
        <mxCell id="rvOceuUh3xd4G9wwaCa7-10" value="Applications Info" style="text;html=1;strokeColor=none;fillColor=none;align=center;verticalAlign=middle;whiteSpace=wrap;rounded=0;" parent="1" vertex="1">
          <mxGeometry x="529" y="1635" width="72" height="30" as="geometry" />
        </mxCell>
        <mxCell id="rvOceuUh3xd4G9wwaCa7-11" value="Job Vacancy, Profile info" style="text;html=1;strokeColor=none;fillColor=none;align=center;verticalAlign=middle;whiteSpace=wrap;rounded=0;" parent="1" vertex="1">
          <mxGeometry x="517" y="1731" width="81" height="30" as="geometry" />
        </mxCell>
        <mxCell id="rvOceuUh3xd4G9wwaCa7-16" value="&lt;span style=&quot;font-size: 14px;&quot;&gt;User&lt;/span&gt;" style="rounded=0;whiteSpace=wrap;html=1;fillColor=#dae8fc;strokeColor=#6c8ebf;" parent="1" vertex="1">
          <mxGeometry x="150" y="1918" width="120" height="60" as="geometry" />
        </mxCell>
        <mxCell id="rvOceuUh3xd4G9wwaCa7-17" value="&lt;span style=&quot;font-size: 14px;&quot;&gt;Apply To Jobs&lt;/span&gt;" style="ellipse;whiteSpace=wrap;html=1;aspect=fixed;fillColor=#ffe6cc;strokeColor=#d79b00;" parent="1" vertex="1">
          <mxGeometry x="390" y="1888" width="120" height="120" as="geometry" />
        </mxCell>
        <mxCell id="rvOceuUh3xd4G9wwaCa7-19" value="" style="endArrow=classic;html=1;rounded=0;edgeStyle=orthogonalEdgeStyle;exitX=1;exitY=0.25;exitDx=0;exitDy=0;" parent="1" source="rvOceuUh3xd4G9wwaCa7-16" edge="1">
          <mxGeometry width="50" height="50" relative="1" as="geometry">
            <mxPoint x="297" y="1968" as="sourcePoint" />
            <mxPoint x="387" y="1933" as="targetPoint" />
          </mxGeometry>
        </mxCell>
        <mxCell id="rvOceuUh3xd4G9wwaCa7-20" value="" style="endArrow=classic;html=1;rounded=0;edgeStyle=orthogonalEdgeStyle;exitX=0.025;exitY=0.675;exitDx=0;exitDy=0;exitPerimeter=0;" parent="1" source="rvOceuUh3xd4G9wwaCa7-17" edge="1">
          <mxGeometry width="50" height="50" relative="1" as="geometry">
            <mxPoint x="277" y="2018" as="sourcePoint" />
            <mxPoint x="277" y="1968" as="targetPoint" />
          </mxGeometry>
        </mxCell>
        <mxCell id="rvOceuUh3xd4G9wwaCa7-21" value="Application Request" style="text;html=1;strokeColor=none;fillColor=none;align=center;verticalAlign=middle;whiteSpace=wrap;rounded=0;" parent="1" vertex="1">
          <mxGeometry x="297" y="1902" width="60" height="30" as="geometry" />
        </mxCell>
        <mxCell id="rvOceuUh3xd4G9wwaCa7-22" value="Status" style="text;html=1;strokeColor=none;fillColor=none;align=center;verticalAlign=middle;whiteSpace=wrap;rounded=0;" parent="1" vertex="1">
          <mxGeometry x="297" y="1969" width="60" height="30" as="geometry" />
        </mxCell>
        <mxCell id="rvOceuUh3xd4G9wwaCa7-24" value="Employer Info" style="text;html=1;strokeColor=none;fillColor=none;align=center;verticalAlign=middle;whiteSpace=wrap;rounded=0;" parent="1" vertex="1">
          <mxGeometry x="518" y="1850" width="72" height="30" as="geometry" />
        </mxCell>
        <mxCell id="rvOceuUh3xd4G9wwaCa7-25" value="Job Seeker Info" style="text;html=1;strokeColor=none;fillColor=none;align=center;verticalAlign=middle;whiteSpace=wrap;rounded=0;" parent="1" vertex="1">
          <mxGeometry x="525" y="1918" width="68" height="30" as="geometry" />
        </mxCell>
        <mxCell id="rvOceuUh3xd4G9wwaCa7-27" value="" style="endArrow=classic;startArrow=classic;html=1;rounded=0;edgeStyle=orthogonalEdgeStyle;entryX=0;entryY=0.5;entryDx=0;entryDy=0;exitX=1;exitY=0.5;exitDx=0;exitDy=0;" parent="1" source="rvOceuUh3xd4G9wwaCa7-17" edge="1">
          <mxGeometry width="50" height="50" relative="1" as="geometry">
            <mxPoint x="528" y="1960" as="sourcePoint" />
            <mxPoint x="640" y="1948" as="targetPoint" />
          </mxGeometry>
        </mxCell>
        <mxCell id="rvOceuUh3xd4G9wwaCa7-30" value="&lt;font style=&quot;font-size: 12px;&quot;&gt;Apply&lt;/font&gt;" style="text;html=1;strokeColor=none;fillColor=none;align=center;verticalAlign=middle;whiteSpace=wrap;rounded=0;" parent="1" vertex="1">
          <mxGeometry x="513" y="2001" width="60" height="30" as="geometry" />
        </mxCell>
        <mxCell id="LY_n04c2pggJdk4liKM1-27" style="edgeStyle=orthogonalEdgeStyle;rounded=0;orthogonalLoop=1;jettySize=auto;html=1;entryX=0;entryY=0.5;entryDx=0;entryDy=0;" edge="1" parent="1" source="rvOceuUh3xd4G9wwaCa7-31" target="ZXx62WjoBj0hGwNEn4ZQ-34">
          <mxGeometry relative="1" as="geometry">
            <Array as="points">
              <mxPoint x="130" y="858" />
              <mxPoint x="130" y="1108" />
            </Array>
          </mxGeometry>
        </mxCell>
        <mxCell id="rvOceuUh3xd4G9wwaCa7-31" value="&lt;span style=&quot;font-size: 14px;&quot;&gt;Admin&lt;/span&gt;" style="rounded=0;whiteSpace=wrap;html=1;fillColor=#dae8fc;strokeColor=#6c8ebf;" parent="1" vertex="1">
          <mxGeometry x="150" y="828" width="120" height="60" as="geometry" />
        </mxCell>
        <mxCell id="LY_n04c2pggJdk4liKM1-25" style="edgeStyle=orthogonalEdgeStyle;rounded=0;orthogonalLoop=1;jettySize=auto;html=1;entryX=0.25;entryY=0;entryDx=0;entryDy=0;" edge="1" parent="1" source="rvOceuUh3xd4G9wwaCa7-32" target="LY_n04c2pggJdk4liKM1-7">
          <mxGeometry relative="1" as="geometry">
            <Array as="points">
              <mxPoint x="440" y="980" />
              <mxPoint x="673" y="980" />
            </Array>
          </mxGeometry>
        </mxCell>
        <mxCell id="LY_n04c2pggJdk4liKM1-30" style="edgeStyle=orthogonalEdgeStyle;rounded=0;orthogonalLoop=1;jettySize=auto;html=1;exitX=0.975;exitY=0.704;exitDx=0;exitDy=0;entryX=1;entryY=0.25;entryDx=0;entryDy=0;exitPerimeter=0;" edge="1" parent="1" source="rvOceuUh3xd4G9wwaCa7-32" target="LY_n04c2pggJdk4liKM1-8">
          <mxGeometry relative="1" as="geometry">
            <Array as="points">
              <mxPoint x="791" y="883" />
              <mxPoint x="791" y="1139" />
            </Array>
          </mxGeometry>
        </mxCell>
        <mxCell id="rvOceuUh3xd4G9wwaCa7-32" value="&lt;span style=&quot;font-size: 14px;&quot;&gt;Manage Users &amp;amp; Jobs&lt;/span&gt;" style="ellipse;whiteSpace=wrap;html=1;aspect=fixed;fillColor=#ffe6cc;strokeColor=#d79b00;" parent="1" vertex="1">
          <mxGeometry x="393" y="798" width="120" height="120" as="geometry" />
        </mxCell>
        <mxCell id="rvOceuUh3xd4G9wwaCa7-34" value="" style="endArrow=classic;html=1;rounded=0;edgeStyle=orthogonalEdgeStyle;exitX=1;exitY=0.25;exitDx=0;exitDy=0;" parent="1" source="rvOceuUh3xd4G9wwaCa7-31" edge="1">
          <mxGeometry width="50" height="50" relative="1" as="geometry">
            <mxPoint x="300" y="878" as="sourcePoint" />
            <mxPoint x="390" y="843" as="targetPoint" />
          </mxGeometry>
        </mxCell>
        <mxCell id="rvOceuUh3xd4G9wwaCa7-35" value="" style="endArrow=classic;html=1;rounded=0;edgeStyle=orthogonalEdgeStyle;exitX=0.025;exitY=0.675;exitDx=0;exitDy=0;exitPerimeter=0;" parent="1" source="rvOceuUh3xd4G9wwaCa7-32" edge="1">
          <mxGeometry width="50" height="50" relative="1" as="geometry">
            <mxPoint x="280" y="928" as="sourcePoint" />
            <mxPoint x="280" y="878" as="targetPoint" />
          </mxGeometry>
        </mxCell>
        <mxCell id="rvOceuUh3xd4G9wwaCa7-36" value="Request" style="text;html=1;strokeColor=none;fillColor=none;align=center;verticalAlign=middle;whiteSpace=wrap;rounded=0;" parent="1" vertex="1">
          <mxGeometry x="300" y="812" width="60" height="30" as="geometry" />
        </mxCell>
        <mxCell id="rvOceuUh3xd4G9wwaCa7-37" value="Status" style="text;html=1;strokeColor=none;fillColor=none;align=center;verticalAlign=middle;whiteSpace=wrap;rounded=0;" parent="1" vertex="1">
          <mxGeometry x="300" y="879" width="60" height="30" as="geometry" />
        </mxCell>
        <mxCell id="rvOceuUh3xd4G9wwaCa7-49" value="Request" style="text;html=1;strokeColor=none;fillColor=none;align=center;verticalAlign=middle;whiteSpace=wrap;rounded=0;" parent="1" vertex="1">
          <mxGeometry x="365" y="340" width="60" height="30" as="geometry" />
        </mxCell>
        <mxCell id="rvOceuUh3xd4G9wwaCa7-50" value="Status" style="text;html=1;strokeColor=none;fillColor=none;align=center;verticalAlign=middle;whiteSpace=wrap;rounded=0;" parent="1" vertex="1">
          <mxGeometry x="478" y="340" width="60" height="30" as="geometry" />
        </mxCell>
        <mxCell id="rvOceuUh3xd4G9wwaCa7-51" value="Admin" style="rounded=0;whiteSpace=wrap;html=1;fillColor=#dae8fc;strokeColor=#6c8ebf;" parent="1" vertex="1">
          <mxGeometry x="394" y="260" width="120" height="60" as="geometry" />
        </mxCell>
        <mxCell id="rvOceuUh3xd4G9wwaCa7-52" value="" style="endArrow=classic;html=1;rounded=0;edgeStyle=orthogonalEdgeStyle;exitX=0.356;exitY=0.987;exitDx=0;exitDy=0;exitPerimeter=0;" parent="1" edge="1">
          <mxGeometry width="50" height="50" relative="1" as="geometry">
            <mxPoint x="432.72" y="319.22" as="sourcePoint" />
            <mxPoint x="433" y="410" as="targetPoint" />
          </mxGeometry>
        </mxCell>
        <mxCell id="rvOceuUh3xd4G9wwaCa7-54" value="" style="endArrow=classic;html=1;rounded=0;edgeStyle=orthogonalEdgeStyle;entryX=0.668;entryY=1.03;entryDx=0;entryDy=0;entryPerimeter=0;exitX=0.691;exitY=-0.009;exitDx=0;exitDy=0;exitPerimeter=0;" parent="1" target="rvOceuUh3xd4G9wwaCa7-51" edge="1">
          <mxGeometry width="50" height="50" relative="1" as="geometry">
            <mxPoint x="472.91999999999985" y="413.91999999999996" as="sourcePoint" />
            <mxPoint x="472" y="327.80000000000007" as="targetPoint" />
          </mxGeometry>
        </mxCell>
        <mxCell id="3oJ-Er16zWGDzY93MScV-1" value="&lt;span style=&quot;font-size: 14px;&quot;&gt;Employer&lt;/span&gt;" style="rounded=0;whiteSpace=wrap;html=1;fillColor=#dae8fc;strokeColor=#6c8ebf;" vertex="1" parent="1">
          <mxGeometry x="149" y="1463" width="120" height="60" as="geometry" />
        </mxCell>
        <mxCell id="3oJ-Er16zWGDzY93MScV-2" value="&lt;span style=&quot;font-size: 14px;&quot;&gt;Manage&lt;/span&gt;" style="ellipse;whiteSpace=wrap;html=1;aspect=fixed;fillColor=#ffe6cc;strokeColor=#d79b00;" vertex="1" parent="1">
          <mxGeometry x="392" y="1433" width="120" height="120" as="geometry" />
        </mxCell>
        <mxCell id="3oJ-Er16zWGDzY93MScV-6" value="Request" style="text;html=1;strokeColor=none;fillColor=none;align=center;verticalAlign=middle;whiteSpace=wrap;rounded=0;" vertex="1" parent="1">
          <mxGeometry x="299" y="1445" width="60" height="30" as="geometry" />
        </mxCell>
        <mxCell id="3oJ-Er16zWGDzY93MScV-7" value="Status" style="text;html=1;strokeColor=none;fillColor=none;align=center;verticalAlign=middle;whiteSpace=wrap;rounded=0;" vertex="1" parent="1">
          <mxGeometry x="300" y="1505" width="60" height="30" as="geometry" />
        </mxCell>
        <mxCell id="3oJ-Er16zWGDzY93MScV-9" value="Employer Info" style="text;html=1;strokeColor=none;fillColor=none;align=center;verticalAlign=middle;whiteSpace=wrap;rounded=0;" vertex="1" parent="1">
          <mxGeometry x="521" y="1414" width="72" height="30" as="geometry" />
        </mxCell>
        <mxCell id="3oJ-Er16zWGDzY93MScV-10" value="Job Vacancy, Profile info" style="text;html=1;strokeColor=none;fillColor=none;align=center;verticalAlign=middle;whiteSpace=wrap;rounded=0;" vertex="1" parent="1">
          <mxGeometry x="510" y="1526" width="88" height="30" as="geometry" />
        </mxCell>
        <mxCell id="3oJ-Er16zWGDzY93MScV-16" value="" style="endArrow=classic;startArrow=classic;html=1;rounded=0;entryX=0;entryY=0.5;entryDx=0;entryDy=0;exitX=0.991;exitY=0.621;exitDx=0;exitDy=0;exitPerimeter=0;" edge="1" parent="1" source="3oJ-Er16zWGDzY93MScV-2">
          <mxGeometry width="50" height="50" relative="1" as="geometry">
            <mxPoint x="520" y="1571" as="sourcePoint" />
            <mxPoint x="639" y="1541" as="targetPoint" />
            <Array as="points" />
          </mxGeometry>
        </mxCell>
        <mxCell id="3oJ-Er16zWGDzY93MScV-18" value="" style="endArrow=classic;startArrow=classic;html=1;rounded=0;entryX=0;entryY=0.5;entryDx=0;entryDy=0;" edge="1" parent="1" source="3oJ-Er16zWGDzY93MScV-2">
          <mxGeometry width="50" height="50" relative="1" as="geometry">
            <mxPoint x="530" y="1441" as="sourcePoint" />
            <mxPoint x="639" y="1429" as="targetPoint" />
            <Array as="points" />
          </mxGeometry>
        </mxCell>
        <mxCell id="3oJ-Er16zWGDzY93MScV-19" value="" style="endArrow=classic;html=1;rounded=0;exitX=1;exitY=0.25;exitDx=0;exitDy=0;" edge="1" parent="1" source="3oJ-Er16zWGDzY93MScV-1">
          <mxGeometry width="50" height="50" relative="1" as="geometry">
            <mxPoint x="300" y="1505" as="sourcePoint" />
            <mxPoint x="390" y="1478" as="targetPoint" />
          </mxGeometry>
        </mxCell>
        <mxCell id="3oJ-Er16zWGDzY93MScV-20" value="" style="endArrow=classic;html=1;rounded=0;exitX=0.01;exitY=0.592;exitDx=0;exitDy=0;exitPerimeter=0;" edge="1" parent="1" source="3oJ-Er16zWGDzY93MScV-2">
          <mxGeometry width="50" height="50" relative="1" as="geometry">
            <mxPoint x="250" y="1585" as="sourcePoint" />
            <mxPoint x="280" y="1504" as="targetPoint" />
          </mxGeometry>
        </mxCell>
        <mxCell id="3oJ-Er16zWGDzY93MScV-25" value="" style="endArrow=classic;html=1;rounded=0;entryX=0;entryY=0.5;entryDx=0;entryDy=0;" edge="1" parent="1" source="ZXx62WjoBj0hGwNEn4ZQ-35">
          <mxGeometry width="50" height="50" relative="1" as="geometry">
            <mxPoint x="550" y="1103" as="sourcePoint" />
            <mxPoint x="640" y="1060" as="targetPoint" />
          </mxGeometry>
        </mxCell>
        <mxCell id="3oJ-Er16zWGDzY93MScV-26" value="" style="endArrow=classic;html=1;rounded=0;entryX=0;entryY=0.5;entryDx=0;entryDy=0;exitX=0.975;exitY=0.625;exitDx=0;exitDy=0;exitPerimeter=0;" edge="1" parent="1" source="ZXx62WjoBj0hGwNEn4ZQ-35">
          <mxGeometry width="50" height="50" relative="1" as="geometry">
            <mxPoint x="550" y="1143" as="sourcePoint" />
            <mxPoint x="640" y="1150" as="targetPoint" />
          </mxGeometry>
        </mxCell>
        <mxCell id="3oJ-Er16zWGDzY93MScV-27" value="" style="endArrow=classic;startArrow=classic;html=1;rounded=0;entryX=0;entryY=0.5;entryDx=0;entryDy=0;" edge="1" parent="1" source="rvOceuUh3xd4G9wwaCa7-2">
          <mxGeometry width="50" height="50" relative="1" as="geometry">
            <mxPoint x="560" y="1681" as="sourcePoint" />
            <mxPoint x="639" y="1650" as="targetPoint" />
          </mxGeometry>
        </mxCell>
        <mxCell id="3oJ-Er16zWGDzY93MScV-28" value="" style="endArrow=classic;startArrow=classic;html=1;rounded=0;entryX=0;entryY=0.5;entryDx=0;entryDy=0;" edge="1" parent="1">
          <mxGeometry width="50" height="50" relative="1" as="geometry">
            <mxPoint x="510" y="1721" as="sourcePoint" />
            <mxPoint x="639" y="1740" as="targetPoint" />
          </mxGeometry>
        </mxCell>
        <mxCell id="3oJ-Er16zWGDzY93MScV-29" value="" style="endArrow=classic;startArrow=classic;html=1;rounded=0;entryX=0;entryY=0.5;entryDx=0;entryDy=0;exitX=1;exitY=0;exitDx=0;exitDy=0;" edge="1" parent="1" source="rvOceuUh3xd4G9wwaCa7-17">
          <mxGeometry width="50" height="50" relative="1" as="geometry">
            <mxPoint x="540" y="1901" as="sourcePoint" />
            <mxPoint x="639" y="1850" as="targetPoint" />
          </mxGeometry>
        </mxCell>
        <mxCell id="3oJ-Er16zWGDzY93MScV-30" value="" style="endArrow=classic;html=1;rounded=0;entryX=0;entryY=0.5;entryDx=0;entryDy=0;" edge="1" parent="1" source="rvOceuUh3xd4G9wwaCa7-17">
          <mxGeometry width="50" height="50" relative="1" as="geometry">
            <mxPoint x="420" y="2091" as="sourcePoint" />
            <mxPoint x="640" y="2050" as="targetPoint" />
          </mxGeometry>
        </mxCell>
        <mxCell id="LY_n04c2pggJdk4liKM1-5" value="Login Request" style="text;html=1;strokeColor=none;fillColor=none;align=center;verticalAlign=middle;whiteSpace=wrap;rounded=0;" vertex="1" parent="1">
          <mxGeometry x="220" y="1191" width="60" height="30" as="geometry" />
        </mxCell>
        <mxCell id="LY_n04c2pggJdk4liKM1-6" value="Employer Section" style="text;html=1;strokeColor=none;fillColor=none;align=center;verticalAlign=middle;whiteSpace=wrap;rounded=0;" vertex="1" parent="1">
          <mxGeometry x="220" y="1381" width="60" height="30" as="geometry" />
        </mxCell>
        <mxCell id="LY_n04c2pggJdk4liKM1-7" value="&lt;font style=&quot;font-size: 14px;&quot;&gt;Job Seeker&lt;/font&gt;" style="html=1;dashed=0;whiteSpace=wrap;shape=partialRectangle;right=0;left=0;fillColor=#dae8fc;strokeColor=#6c8ebf;" vertex="1" parent="1">
          <mxGeometry x="640" y="1038" width="130" height="44" as="geometry" />
        </mxCell>
        <mxCell id="LY_n04c2pggJdk4liKM1-8" value="&lt;font style=&quot;font-size: 14px;&quot;&gt;Employer&lt;/font&gt;" style="html=1;dashed=0;whiteSpace=wrap;shape=partialRectangle;right=0;left=0;fillColor=#dae8fc;strokeColor=#6c8ebf;" vertex="1" parent="1">
          <mxGeometry x="640" y="1128" width="131" height="46" as="geometry" />
        </mxCell>
        <mxCell id="LY_n04c2pggJdk4liKM1-9" value="&lt;font style=&quot;font-size: 14px;&quot;&gt;User Credentials&lt;/font&gt;" style="html=1;dashed=0;whiteSpace=wrap;shape=partialRectangle;right=0;left=0;fillColor=#dae8fc;strokeColor=#6c8ebf;" vertex="1" parent="1">
          <mxGeometry x="639" y="1278" width="131" height="46" as="geometry" />
        </mxCell>
        <mxCell id="LY_n04c2pggJdk4liKM1-11" value="&lt;font style=&quot;font-size: 14px;&quot;&gt;Employer Profile&lt;/font&gt;" style="html=1;dashed=0;whiteSpace=wrap;shape=partialRectangle;right=0;left=0;fillColor=#dae8fc;strokeColor=#6c8ebf;" vertex="1" parent="1">
          <mxGeometry x="640" y="1406" width="131" height="46" as="geometry" />
        </mxCell>
        <mxCell id="LY_n04c2pggJdk4liKM1-12" value="&lt;font style=&quot;font-size: 14px;&quot;&gt;Jobs&lt;/font&gt;" style="html=1;dashed=0;whiteSpace=wrap;shape=partialRectangle;right=0;left=0;fillColor=#dae8fc;strokeColor=#6c8ebf;" vertex="1" parent="1">
          <mxGeometry x="640" y="1518" width="131" height="46" as="geometry" />
        </mxCell>
        <mxCell id="LY_n04c2pggJdk4liKM1-13" value="&lt;font style=&quot;font-size: 14px;&quot;&gt;Applications&lt;/font&gt;" style="html=1;dashed=0;whiteSpace=wrap;shape=partialRectangle;right=0;left=0;fillColor=#dae8fc;strokeColor=#6c8ebf;" vertex="1" parent="1">
          <mxGeometry x="640" y="1627" width="131" height="46" as="geometry" />
        </mxCell>
        <mxCell id="LY_n04c2pggJdk4liKM1-14" value="&lt;font style=&quot;font-size: 14px;&quot;&gt;Jobs&lt;/font&gt;" style="html=1;dashed=0;whiteSpace=wrap;shape=partialRectangle;right=0;left=0;fillColor=#dae8fc;strokeColor=#6c8ebf;" vertex="1" parent="1">
          <mxGeometry x="639.5" y="1715" width="131" height="46" as="geometry" />
        </mxCell>
        <mxCell id="LY_n04c2pggJdk4liKM1-15" value="&lt;font style=&quot;font-size: 14px;&quot;&gt;Jobs&lt;/font&gt;" style="html=1;dashed=0;whiteSpace=wrap;shape=partialRectangle;right=0;left=0;fillColor=#dae8fc;strokeColor=#6c8ebf;" vertex="1" parent="1">
          <mxGeometry x="639" y="1831" width="131" height="46" as="geometry" />
        </mxCell>
        <mxCell id="LY_n04c2pggJdk4liKM1-16" value="&lt;font style=&quot;font-size: 14px;&quot;&gt;Job Seeker&lt;/font&gt;" style="html=1;dashed=0;whiteSpace=wrap;shape=partialRectangle;right=0;left=0;fillColor=#dae8fc;strokeColor=#6c8ebf;" vertex="1" parent="1">
          <mxGeometry x="640" y="1923" width="131" height="46" as="geometry" />
        </mxCell>
        <mxCell id="LY_n04c2pggJdk4liKM1-17" value="&lt;font style=&quot;font-size: 14px;&quot;&gt;Applications&lt;/font&gt;" style="html=1;dashed=0;whiteSpace=wrap;shape=partialRectangle;right=0;left=0;fillColor=#dae8fc;strokeColor=#6c8ebf;" vertex="1" parent="1">
          <mxGeometry x="639.5" y="2026" width="131" height="46" as="geometry" />
        </mxCell>
        <mxCell id="LY_n04c2pggJdk4liKM1-21" value="Job Seeker Section" style="text;html=1;strokeColor=none;fillColor=none;align=center;verticalAlign=middle;whiteSpace=wrap;rounded=0;" vertex="1" parent="1">
          <mxGeometry x="60" y="1481" width="70" height="30" as="geometry" />
        </mxCell>
        <mxCell id="LY_n04c2pggJdk4liKM1-22" value="Apply For a Job" style="text;html=1;strokeColor=none;fillColor=none;align=center;verticalAlign=middle;whiteSpace=wrap;rounded=0;" vertex="1" parent="1">
          <mxGeometry x="145" y="1811" width="60" height="30" as="geometry" />
        </mxCell>
        <mxCell id="LY_n04c2pggJdk4liKM1-24" value="&lt;font style=&quot;font-size: 14px;&quot;&gt;Authorization Control&lt;/font&gt;" style="text;html=1;strokeColor=none;fillColor=none;align=center;verticalAlign=middle;whiteSpace=wrap;rounded=0;rotation=270;" vertex="1" parent="1">
          <mxGeometry x="39" y="1008" width="140" height="30" as="geometry" />
        </mxCell>
        <mxCell id="LY_n04c2pggJdk4liKM1-26" style="edgeStyle=orthogonalEdgeStyle;rounded=0;orthogonalLoop=1;jettySize=auto;html=1;exitX=0.5;exitY=0;exitDx=0;exitDy=0;" edge="1" parent="1" source="LY_n04c2pggJdk4liKM1-7">
          <mxGeometry relative="1" as="geometry">
            <mxPoint x="460" y="918" as="targetPoint" />
            <Array as="points">
              <mxPoint x="705" y="960" />
              <mxPoint x="460" y="960" />
              <mxPoint x="460" y="918" />
            </Array>
          </mxGeometry>
        </mxCell>
        <mxCell id="LY_n04c2pggJdk4liKM1-31" style="edgeStyle=orthogonalEdgeStyle;rounded=0;orthogonalLoop=1;jettySize=auto;html=1;exitX=1;exitY=0.75;exitDx=0;exitDy=0;" edge="1" parent="1" source="LY_n04c2pggJdk4liKM1-8">
          <mxGeometry relative="1" as="geometry">
            <mxPoint x="520" y="860" as="targetPoint" />
            <Array as="points">
              <mxPoint x="810" y="1163" />
              <mxPoint x="810" y="860" />
            </Array>
          </mxGeometry>
        </mxCell>
      </root>
    </mxGraphModel>
  </diagram>
  <diagram id="ouwz0wmWdoGfxDvdlCNv" name="ERD">
    <mxGraphModel dx="880" dy="460" grid="1" gridSize="10" guides="1" tooltips="1" connect="1" arrows="1" fold="1" page="1" pageScale="1" pageWidth="850" pageHeight="1100" math="0" shadow="0">
      <root>
        <mxCell id="0" />
        <mxCell id="1" parent="0" />
        <mxCell id="-TL9NEGEg42N0MaOFhkl-1" value="&lt;h1&gt;&lt;font style=&quot;font-size: 27px;&quot;&gt;Job Application System&lt;/font&gt;&lt;/h1&gt;" style="text;html=1;strokeColor=none;fillColor=none;spacing=5;spacingTop=-20;whiteSpace=wrap;overflow=hidden;rounded=0;align=center;fontStyle=4" parent="1" vertex="1">
          <mxGeometry x="289" y="40" width="330" height="40" as="geometry" />
        </mxCell>
        <mxCell id="-TL9NEGEg42N0MaOFhkl-2" value="&lt;h1&gt;ER Diagram&lt;/h1&gt;" style="text;html=1;strokeColor=none;fillColor=none;spacing=5;spacingTop=-20;whiteSpace=wrap;overflow=hidden;rounded=0;align=center;fontStyle=4" parent="1" vertex="1">
          <mxGeometry x="328" y="99" width="250" height="40" as="geometry" />
        </mxCell>
        <mxCell id="pk0RlsL8hYIRSLS9Z3Bs-2" value="" style="html=1;dashed=0;whiteSpace=wrap;" vertex="1" parent="1">
          <mxGeometry x="360" y="230" width="130" height="60" as="geometry" />
        </mxCell>
      </root>
    </mxGraphModel>
  </diagram>
</mxfile>
